<?xml version="1.0" encoding="utf-8"?>
<!-- Generator: Adobe Illustrator 23.0.3, SVG Export Plug-In . SVG Version: 6.00 Build 0)  -->
<svg version="1.1" id="Calque_1" xmlns="http://www.w3.org/2000/svg" xmlns:xlink="http://www.w3.org/1999/xlink" x="0px" y="0px"
	 viewBox="0 0 512 512" style="enable-background:new 0 0 512 512;" xml:space="preserve">
<style type="text/css">
	.st0{fill:#FFFFFF;}
	.st1{fill:none;}
</style>
<path class="st0" d="M83.6,412.7H20.9c-8.7,0-15.7-7-15.7-15.7s7-15.7,15.7-15.7h62.7c8.7,0,15.7,7,15.7,15.7S92.2,412.7,83.6,412.7
	z"/>
<path class="st0" d="M593,412.7h-39.2c-8.7,0-15.7-7-15.7-15.7s7-15.7,15.7-15.7H580l21.1-112.6c-0.3-57.6-49.5-106.8-110-106.8
	H388.2l-49.9,219.4h90.1c8.7,0,15.7,7,15.7,15.7s-7,15.7-15.7,15.7H318.7c-4.8,0-9.3-2.2-12.3-5.9c-3-3.7-4.1-8.6-3-13.2l57-250.8
	c1.6-7.2,8-12.2,15.3-12.2h115.4c77.8,0,141.1,63.3,141.1,141.1l-23.8,128.3C607,407.4,600.5,412.7,593,412.7z"/>
<path class="st0" d="M491.1,475.4c-43.2,0-78.4-35.1-78.4-78.4s35.2-78.4,78.4-78.4s78.4,35.1,78.4,78.4S534.3,475.4,491.1,475.4z
	 M491.1,350c-25.9,0-47,21.1-47,47c0,25.9,21.1,47,47,47c25.9,0,47-21.1,47-47C538.1,371.1,517,350,491.1,350z"/>
<path class="st0" d="M146.3,475.4c-43.2,0-78.4-35.1-78.4-78.4s35.2-78.4,78.4-78.4s78.4,35.1,78.4,78.4S189.5,475.4,146.3,475.4z
	 M146.3,350c-25.9,0-47,21.1-47,47c0,25.9,21.1,47,47,47s47-21.1,47-47C193.3,371.1,172.2,350,146.3,350z"/>
<path class="st0" d="M83.6,130.6H-41.8c-8.7,0-15.7-7-15.7-15.7s7-15.7,15.7-15.7H83.6c8.7,0,15.7,7,15.7,15.7
	S92.2,130.6,83.6,130.6z"/>
<path class="st0" d="M83.6,224.7H-73.1c-8.7,0-15.7-7-15.7-15.7c0-8.7,7-15.7,15.7-15.7H83.6c8.7,0,15.7,7,15.7,15.7
	C99.3,217.6,92.2,224.7,83.6,224.7z"/>
<path class="st0" d="M83.6,318.7h-188.1c-8.7,0-15.7-7-15.7-15.7c0-8.7,7-15.7,15.7-15.7H83.6c8.7,0,15.7,7,15.7,15.7
	C99.3,311.7,92.2,318.7,83.6,318.7z"/>
<path class="st0" d="M318.7,412.7H209c-8.7,0-15.7-7-15.7-15.7s7-15.7,15.7-15.7h97.2l71.2-313.5H20.9c-8.7,0-15.7-7-15.7-15.7
	s7-15.7,15.7-15.7h376.2c4.8,0,9.3,2.2,12.3,5.9c3,3.7,4.1,8.6,3,13.2L334,400.5C332.4,407.7,326,412.7,318.7,412.7L318.7,412.7z"/>
<rect x="46.3" class="st1" width="178.4" height="512"/>
</svg>
