<svg height="512pt" viewBox="0 0 512 512.00179" width="512pt" xmlns="http://www.w3.org/2000/svg"><path d="m200.382812 263.535156c-6.421874 6.421875-9.957031 14.960938-9.957031 24.042969s3.535157 17.621094 9.957031 24.039063c6.421876 6.425781 14.960938 9.960937 24.039063 9.960937 9.082031 0 17.621094-3.535156 24.042969-9.957031 13.257812-13.257813 13.257812-34.828125 0-48.085938-13.257813-13.253906-34.828125-13.253906-48.082032 0zm33.941407 14.144532c5.457031 5.457031 5.457031 14.339843 0 19.796874-2.648438 2.644532-6.160157 4.101563-9.902344 4.101563-3.738281 0-7.253906-1.457031-9.898437-4.101563-2.644532-2.644531-4.097657-6.15625-4.097657-9.898437 0-3.738281 1.453125-7.253906 4.097657-9.898437 2.730468-2.730469 6.3125-4.09375 9.898437-4.09375s7.171875 1.363281 9.902344 4.09375zm0 0"/><path d="m511.679688 77.320312c-1.382813-5.347656-6.84375-8.5625-12.1875-7.175781-9.921876 2.566407-19.585938 5.929688-28.917969 10.007813l-8.742188-8.742188c-3.90625-3.90625-10.234375-3.90625-14.140625 0s-3.90625 10.234375 0 14.140625l4.058594 4.0625c-11.859375 6.804688-22.988281 14.882813-33.195312 24.082031l-20.039063-20.039062c3.480469-3.859375 6.820313-7.84375 9.96875-11.960938l3.882813 3.882813c1.953124 1.949219 4.511718 2.929687 7.070312 2.929687s5.117188-.980468 7.070312-2.929687c3.902344-3.90625 3.902344-10.238281 0-14.144531l-6.539062-6.539063c5.484375-8.996093 10.238281-18.433593 14.191406-28.222656l1.097656 1.09375c1.953126 1.953125 4.511719 2.929687 7.070313 2.929687s5.117187-.976562 7.070313-2.925781c3.90625-3.90625 3.90625-10.238281 0-14.144531l-8.109376-8.109375c.277344-1.007813.574219-2.007813.835938-3.023437 1.375-5.347657-1.84375-10.796876-7.191406-12.175782-5.347656-1.371094-10.800782 1.84375-12.179688 7.191406-6.898437 26.808594-20.160156 51.554688-38.539062 72.144532-22.460938-19.050782-56.257813-17.996094-77.445313 3.191406l-84.929687 84.925781-44.703125 30.929688c-23.941407 16.5625-39.171875 42.6875-41.792969 71.679687-1.558594 17.269532 1.46875 34.339844 8.519531 49.671875l-140.933593 140.9375c-3.90625 3.90625-3.90625 10.238281 0 14.144531 1.953124 1.949219 4.511718 2.925782 7.070312 2.925782s5.117188-.976563 7.070312-2.925782l6.289063-6.289062 2.871094 2.867188c1.953125 1.953124 4.511719 2.929687 7.070312 2.929687 2.558594 0 5.117188-.976563 7.070313-2.929687 3.90625-3.902344 3.90625-10.234376 0-14.140626l-2.867188-2.871093 21.207032-21.210938 2.871093 2.871094c1.953125 1.953125 4.511719 2.929687 7.070313 2.929687s5.117187-.976562 7.070312-2.929687c3.90625-3.902344 3.90625-10.234375 0-14.140625l-2.871094-2.871094 21.210938-21.207031 2.867188 2.867187c1.953124 1.953126 4.511718 2.929688 7.070312 2.929688 2.5625 0 5.121094-.976562 7.074219-2.929688 3.902343-3.902343 3.902343-10.234374 0-14.140624l-2.871094-2.871094 21.210937-21.207032 2.867188 2.867188c1.953125 1.953125 4.511719 2.929688 7.070312 2.929688 2.5625 0 5.121094-.976563 7.074219-2.929688 3.902344-3.902344 3.902344-10.234375 0-14.140625l-2.871093-2.871094 10.867187-10.867187c2.785156 3.722656 5.847656 7.269531 9.1875 10.609375 3.335937 3.339843 6.886719 6.402343 10.613281 9.1875l-28.546875 28.542969-2.941406-2.941407c-3.90625-3.90625-10.238281-3.90625-14.144531 0-3.90625 3.902344-3.90625 10.234375 0 14.140625l2.945312 2.945313-21.210937 21.210937-2.945313-2.945312c-3.902344-3.90625-10.234375-3.90625-14.140625 0-3.90625 3.902344-3.90625 10.234375 0 14.140625l2.945313 2.945312-21.210938 21.210938-2.941406-2.945313c-3.90625-3.902344-10.238281-3.902344-14.144531 0-3.90625 3.90625-3.90625 10.238282 0 14.144532l2.945312 2.941406-23.960937 23.964844c-3.90625 3.90625-3.90625 10.238281 0 14.144531 1.953125 1.949219 4.511718 2.925781 7.070312 2.925781s5.117188-.976562 7.070313-2.925781l140.949219-140.949219c12.707031 5.839844 26.609374 8.933594 40.8125 8.929688 2.515624 0 5.042968-.09375 7.570312-.289063 5.507812-.425781 9.625-5.234375 9.199219-10.742187-.421875-5.503907-5.226563-9.597657-10.738281-9.199219-22.707032 1.769531-44.949219-6.476563-61.050782-22.578125-16.378906-16.375-24.574218-39-22.488281-62.066406 2.082031-23.066407 14.199219-43.851563 33.25-57.03125l81.960937-56.703126c5.90625-4.085937 13.875-3.363281 18.949219 1.714844l9.996094 9.996094-13.570313 13.570312c-5.667968 5.664063-8.789062 13.199219-8.789062 21.210938 0 8.015625 3.121094 15.546875 8.789062 21.214844 5.664063 5.667968 13.199219 8.785156 21.210938 8.785156 8.015625 0 15.546875-3.117188 21.214844-8.785156l13.570312-13.570313 9.996094 9.996094c5.078125 5.074219 5.796875 13.042969 1.710938 18.945313l-53.828126 77.8125c-3.144531 4.542968-2.007812 10.769531 2.535157 13.914062 1.734375 1.199219 3.71875 1.777344 5.679687 1.777344 3.171875 0 6.292969-1.507813 8.230469-4.3125l28.058594-40.558594 84.925781-84.925781c21.117188-21.117188 22.234375-54.761719 3.382812-77.222657 20.542969-18.339843 45.226563-31.585937 71.964844-38.5 5.34375-1.382812 8.558594-6.839843 7.175782-12.1875zm-208.113282 68.695313c-5.980468-5.980469-13.671875-9.382813-21.605468-10.078125l38.953124-38.949219c14.515626-14.515625 38.132813-14.515625 52.648438 0l.730469.730469c-3 1.425781-5.808594 3.375-8.289063 5.851562l-52.441406 52.441407zm10.566406 65.996094c-1.886718 1.886719-4.398437 2.925781-7.070312 2.925781s-5.179688-1.039062-7.070312-2.929688c-1.886719-1.886718-2.929688-4.398437-2.929688-7.070312s1.042969-5.179688 2.929688-7.070312l80.15625-80.152344c1.949218-1.949219 4.507812-2.925782 7.070312-2.925782 2.558594 0 5.121094.976563 7.070312 2.925782 3.898438 3.898437 3.898438 10.242187 0 14.140625zm100.882813-20.921875-38.953125 38.949218c-.691406-7.929687-4.09375-15.625-10.074219-21.605468l-9.996093-9.996094 52.4375-52.441406c2.480468-2.480469 4.425781-5.289063 5.855468-8.285156l.730469.726562c14.511719 14.519531 14.511719 38.136719 0 52.652344zm0 0"/><path d="m278.359375 344c-2.636719 0-5.207031 1.0625-7.078125 2.929688-1.859375 1.859374-2.921875 4.429687-2.921875 7.070312 0 2.628906 1.0625 5.210938 2.921875 7.070312 1.871094 1.859376 4.441406 2.929688 7.078125 2.929688 2.632813 0 5.203125-1.070312 7.070313-2.929688 1.859374-1.859374 2.921874-4.441406 2.921874-7.070312s-1.0625-5.210938-2.921874-7.070312c-1.867188-1.867188-4.4375-2.929688-7.070313-2.929688zm0 0"/></svg>